<svg width="405" height="312" viewBox="0 0 405 312" fill="none" xmlns="http://www.w3.org/2000/svg">
<path d="M7.00931 0H65.1689C67.7649 0 70.1477 1.43665 71.3595 3.73246L135.314 124.899C137.947 129.886 145.095 129.872 147.708 124.874L210.925 3.94099C212.132 1.63149 214.522 0.183832 217.128 0.183823L273.535 0.183594C275.484 0.183594 277.246 0.980025 278.516 2.26517C264.367 17.0221 180.22 107.484 166.33 185.684C158.327 230.738 169.33 310.857 169.33 310.857L106.029 310.857C102.163 310.857 99.0289 307.723 99.0289 303.857V202.814C99.0289 201.7 98.763 200.602 98.2532 199.611L0.78508 10.203C-1.61221 5.54435 1.77008 0 7.00931 0Z" fill="#D9D9D9"/>
<path d="M280.535 249.797C280.535 253.663 283.669 256.797 287.535 256.797H397.21C401.076 256.797 404.21 259.931 404.21 263.797V304.041C404.21 307.907 401.076 311.041 397.21 311.041H246.386C246.386 311.041 224.843 242.717 226.535 196.684C229.146 125.633 271.374 21.978 279.269 3.16748C280.066 4.30436 280.535 5.68932 280.535 7.18364V249.797Z" fill="#D9D9D9"/>
</svg>
