<svg viewBox="0 0 512 512" xmlns="http://www.w3.org/2000/svg" fill="none">
  <style>
    /* This handles the 'Light AF' theme switching without JS */
    path { fill: #D9D9D9; } 
    @media (prefers-color-scheme: dark) {
      path { fill: #ffffff; }
    }
  </style>
  <path d="M60.9045 100.479H119.064C121.66 100.479 124.043 101.916 125.255 104.212L189.209 225.378C191.842 230.366 198.991 230.352 201.603 225.353L264.82 104.42C266.027 102.111 268.417 100.663 271.023 100.663L327.43 100.663C329.379 100.663 331.142 101.46 332.411 102.745C318.262 117.502 234.115 207.963 220.225 286.163C212.222 331.217 223.225 411.337 223.225 411.337L159.924 411.337C156.058 411.337 152.924 408.203 152.924 404.337V303.293C152.924 302.179 152.658 301.081 152.148 300.09L54.6803 110.682C52.283 106.024 55.6653 100.479 60.9045 100.479Z" />
  <path d="M334.43 350.277C334.43 354.143 337.564 357.277 341.43 357.277H451.105C454.971 357.277 458.105 360.411 458.105 364.277V404.521C458.105 408.387 454.971 411.521 451.105 411.521H300.281C300.281 411.521 278.738 343.196 280.43 297.163C283.041 226.112 325.269 122.458 333.164 103.647C333.962 104.784 334.43 106.169 334.43 107.663V350.277Z" />
</svg>
